#!OML:ASF H:\IndianDance\Patient Classification 1\Patient 1\Session 1\dancer.ASF
:FULLY-SPECIFIED
:DEGREES
2917
root 24.4981 15.082 -0.573091 -166.692 27.3707 -176.541
lowerback 7.23282 0.402674 -4.38335
upperback -4.19156 -0.00944421 -2.98577
thorax -8.50844 0.216529 -0.710266
lowerneck -17.4276 9.92324 11.4995
upperneck 35.1126 13.6342 1.09806
head 16.1869 8.11676 1.37014
rclavicle -6.61953e-014 -8.26944e-014
rhumerus -2.75268 -59.8558 -13.006
rradius 63.1423
rwrist -87.9495
rhand -36.9447 -13.7946
rfingers 7.12502
rthumb -10.0213 -43.536
lclavicle -6.61953e-014 -8.26944e-014
lhumerus 13.3901 -54.669 17.6882
lradius 116.147
lwrist -5.1285
lhand -47.397 -21.8191
lfingers 7.12502
lthumb -20.0889 -352.838
rfemur 136.366 199.948 -138.922
rtibia 61.6089
rfoot 171.9 -176.242
rtoes 3.46726
lfemur -17.8437 18.2282 -26.5436
ltibia 49.7897
lfoot -11.572 2.41268
ltoes -16.0049
2918
root 24.549 15.0875 -0.551143 -166.868 27.6015 -176.649
lowerback 7.2531 0.260078 -4.5249
upperback -4.30394 -0.215101 -2.90574
thorax -8.63805 0.130933 -0.519066
lowerneck -17.6916 9.63715 11.1713
upperneck 34.86 12.9981 1.38226
head 16.0272 7.82898 1.39929
rclavicle 2.22639e-014 -2.38542e-014
rhumerus -1.2973 -59.7712 -14.1561
rradius 61.9818
rwrist -88.3444
rhand -37.3315 -14.6013
rfingers 7.12502
rthumb -10.3945 -44.3244
lclavicle 2.22639e-014 -2.38542e-014
lhumerus 13.9039 -55.4748 16.579
lradius 116.879
lwrist -6.02099
lhand -47.9316 -24.1647
lfingers 7.12502
lthumb -20.6027 -355.238
rfemur 136.581 198.912 -140.397
rtibia 61.9924
rfoot 170.185 -179.816
rtoes 2.47208
lfemur -17.2995 17.8184 -26.4366
ltibia 49.1941
lfoot -11.8483 2.79419
ltoes -16.6909
2919
root 24.6028 15.0911 -0.531107 -167.017 27.8308 -176.705
lowerback 7.26083 0.127345 -4.62671
upperback -4.42842 -0.402321 -2.80788
thorax -8.77248 0.0529812 -0.333382
lowerneck -17.912 9.33712 10.862
upperneck 34.5708 12.3696 1.61021
head 15.8534 7.53859 1.40044
rclavicle 5.86415e-014 1.59028e-014
rhumerus -0.109316 -59.3994 -15.1265
rradius 61.0377
rwrist -88.4179
rhand -37.7736 -15.3689
rfingers 7.12502
rthumb -10.8209 -45.0701
lclavicle 5.86415e-014 1.59028e-014
lhumerus 14.3298 -56.2922 15.5932
lradius 117.549
lwrist -6.81086
lhand -48.3921 -26.3382
lfingers 7.12502
lthumb -21.0451 -357.46
rfemur 136.982 197.652 -141.969
rtibia 62.0291
rfoot 168.581 -183.639
rtoes 2.54664
lfemur -16.8374 17.5896 -26.2291
ltibia 48.7696
lfoot -12.0681 2.9591
ltoes -17.3341
2920
root 24.66 15.0931 -0.513095 -167.132 28.0564 -176.7
lowerback 7.24402 0.00211535 -4.6925
upperback -4.55997 -0.57314 -2.68671
thorax -8.8994 -0.0183043 -0.144905
lowerneck -18.106 9.0265 10.5333
upperneck 34.2532 11.746 1.83247
head 15.6647 7.2462 1.40134
rclavicle -4.6118e-014 -3.18055e-014
rhumerus 0.828862 -58.8023 -15.9417
rradius 60.343
rwrist -88.3135
rhand -38.2344 -16.1407
rfingers 7.12502
rthumb -11.2653 -45.8182
lclavicle -4.6118e-014 -3.18055e-014
lhumerus 14.6368 -57.112 14.7647
lradius 118.156
lwrist -7.52648
lhand -48.7711 -28.352
lfingers 7.12502
lthumb -21.4091 -359.515
rfemur 137.562 196.186 -143.6
rtibia 61.6742
rfoot 167.123 -187.374
rtoes 3.25392
lfemur -16.4681 17.5563 -25.9161
ltibia 48.5296
lfoot -12.2337 2.93048
ltoes -18.012
2921
root 24.7206 15.0936 -0.497367 -167.199 28.2725 -176.623
lowerback 7.19058 -0.12155 -4.71816
upperback -4.69466 -0.733557 -2.53662
thorax -9.00729 -0.0862976 0.0508575
lowerneck -18.2804 8.71602 10.1942
upperneck 33.9135 11.1405 2.0499
head 15.4677 6.9581 1.40475
rclavicle -7.91163e-014 1.27222e-014
rhumerus 1.55026 -58.026 -16.646
rradius 59.9186
rwrist -88.1677
rhand -38.701 -16.8534
rfingers 7.12502
rthumb -11.7153 -46.5058
lclavicle -7.91163e-014 1.27222e-014
lhumerus 14.7812 -57.9296 14.1359
lradius 118.698
lwrist -8.20655
lhand -49.0659 -30.1413
lfingers 7.12502
lthumb -21.6924 -361.337
rfemur 138.302 194.531 -145.252
rtibia 60.9042
rfoot 165.805 -190.659
rtoes 4.45881
lfemur -16.2083 17.7086 -25.4899
ltibia 48.4949
lfoot -12.3447 2.72538
ltoes -18.6667
2922
root 24.7848 15.0919 -0.483838 -167.22 28.4742 -176.482
lowerback 7.09182 -0.250766 -4.71632
upperback -4.83154 -0.893488 -2.36266
thorax -9.08967 -0.155153 0.256721
lowerneck -18.4304 8.41491 9.86336
upperneck 33.5561 10.5604 2.26951
head 15.2649 6.68105 1.41232
rclavicle -7.15625e-015 2.54444e-014
rhumerus 2.08073 -57.1149 -17.2783
rradius 59.7779
rwrist -88.0519
rhand -39.153 -17.54
rfingers 7.12502
rthumb -12.1512 -47.1671
lclavicle -7.15625e-015 2.54444e-014
lhumerus 14.7397 -58.7406 13.7143
lradius 119.176
lwrist -8.86039
lhand -49.2753 -31.7301
lfingers 7.12502
lthumb -21.8934 -362.949
rfemur 139.178 192.719 -146.893
rtibia 59.7266
rfoot 164.636 -193.226
rtoes 5.67737
lfemur -16.0812 18.0345 -24.9582
ltibia 48.7
lfoot -12.3915 2.34706
ltoes -19.3228
2923
root 24.8524 15.0873 -0.472513 -167.196 28.6538 -176.285
lowerback 6.94333 -0.387559 -4.69093
upperback -4.96426 -1.05564 -2.16812
thorax -9.13678 -0.226347 0.471382
lowerneck -18.5675 8.12906 9.54031
upperneck 33.1838 10.0122 2.49203
head 15.0602 6.41749 1.42643
rclavicle 4.4329e-014 3.02153e-014
rhumerus 2.45254 -56.1263 -17.8689
rradius 59.9105
rwrist -87.9626
rhand -39.5574 -18.2092
rfingers 7.12502
rthumb -12.5411 -47.8128
lclavicle 4.4329e-014 3.02153e-014
lhumerus 14.5123 -59.5343 13.5024
lradius 119.595
lwrist -9.47564
lhand -49.4355 -33.1181
lfingers 7.12502
lthumb -22.0472 -364.355
rfemur 140.158 190.789 -148.493
rtibia 58.2023
rfoot 163.642 -194.882
rtoes 6.50718
lfemur -16.1058 18.512 -24.3254
ltibia 49.1821
lfoot -12.3666 1.77783
ltoes -19.9608
2924
root 24.9228 15.0753 -0.46255 -167.135 28.8015 -176.042
lowerback 6.74531 -0.534479 -4.64571
upperback -5.08891 -1.22402 -1.95709
thorax -9.14422 -0.30191 0.692604
lowerneck -18.7215 7.85986 9.21196
upperneck 32.816 9.49338 2.73596
head 14.8669 6.16763 1.45863
rclavicle 5.57591e-014 -2.06736e-014
rhumerus 2.67091 -55.0732 -18.4162
rradius 60.3054
rwrist -87.9059
rhand -39.9573 -18.8251
rfingers 7.12502
rthumb -12.9266 -48.4047
lclavicle 5.57591e-014 -2.06736e-014
lhumerus 14.1061 -60.2989 13.484
lradius 119.97
lwrist -10.0218
lhand -49.5838 -34.3094
lfingers 7.12502
lthumb -22.1896 -365.563
rfemur 141.204 188.854 -149.98
rtibia 56.4374
rfoot 162.964 -195.82
rtoes 5.06582
lfemur -16.3099 19.1061 -23.6019
ltibia 49.9835
lfoot -12.2589 1.02921
ltoes -20.5233
2925
root 24.9952 15.0556 -0.453353 -167.038 28.908 -175.765
lowerback 6.50582 -0.693349 -4.58407
upperback -5.20958 -1.40249 -1.7371
thorax -9.12118 -0.383405 0.914192
lowerneck -18.8847 7.61197 8.89466
upperneck 32.4559 9.0088 2.99762
head 14.6859 5.93592 1.50527
rclavicle -5.86415e-014 -4.77083e-015
rhumerus 2.73599 -53.9738 -18.9237
rradius 60.9416
rwrist -87.8277
rhand -40.3696 -19.4141
rfingers 7.12502
rthumb -13.3241 -48.9682
lclavicle -5.86415e-014 -4.77083e-015
lhumerus 13.5473 -61.0329 13.6312
lradius 120.306
lwrist -10.463
lhand -49.7467 -35.406
lfingers 7.12502
lthumb -22.346 -366.678
rfemur 142.254 187.096 -151.251
rtibia 54.6072
rfoot 162.674 -196.196
rtoes 0.687682
lfemur -16.7094 19.7819 -22.7974
ltibia 51.1177
lfoot -12.0331 0.110146
ltoes -21.0796
2926
root 25.0689 15.0299 -0.444695 -166.911 28.9657 -175.464
lowerback 6.23598 -0.863094 -4.51022
upperback -5.32841 -1.59117 -1.51142
thorax -9.07656 -0.470532 1.13459
lowerneck -19.054 7.38965 8.59702
upperneck 32.1055 8.56707 3.26204
head 14.5184 5.7253 1.56011
rclavicle -1.04859e-014 5.08889e-014
rhumerus 2.64859 -52.8306 -19.3696
rradius 61.7857
rwrist -87.6926
rhand -40.828 -19.9837
rfingers 7.12502
rthumb -13.7659 -49.5083
lclavicle -1.04859e-014 5.08889e-014
lhumerus 12.8563 -61.7331 13.9105
lradius 120.612
lwrist -10.8066
lhand -49.9284 -36.3666
lfingers 7.12502
lthumb -22.5204 -367.66
rfemur 143.228 185.703 -152.205
rtibia 52.8902
rfoot 162.158 -195.852
rtoes -3.11405
lfemur -17.3085 20.5041 -21.9183
ltibia 52.5722
lfoot -11.6443 -1.00874
ltoes -21.4241
2927
root 25.1431 15.0003 -0.436446 -166.762 28.9722 -175.159
lowerback 5.95347 -1.04132 -4.43438
upperback -5.45159 -1.7895 -1.2862
thorax -9.02768 -0.561958 1.3528
lowerneck -19.2307 7.19716 8.32393
upperneck 31.7781 8.17425 3.52809
head 14.3702 5.53978 1.62357
rclavicle -5.47155e-014 1.59028e-014
rhumerus 2.39984 -51.6426 -19.7359
rradius 62.8116
rwrist -87.4774
rhand -41.3329 -20.5417
rfingers 7.12502
rthumb -14.2525 -50.0327
lclavicle -5.47155e-014 1.59028e-014
lhumerus 12.0604 -62.3979 14.3037
lradius 120.881
lwrist -11.0565
lhand -50.1214 -37.2546
lfingers 7.12502
lthumb -22.7056 -368.571
rfemur 144.04 184.835 -152.779
rtibia 51.4525
rfoot 161.547 -195.185
rtoes -7.09529
lfemur -18.0973 21.2384 -20.985
ltibia 54.3016
lfoot -11.0304 -2.3146
ltoes -21.5193
